<?xml version="1.0" encoding="UTF-8"?>
<!DOCTYPE svg PUBLIC "-//W3C//DTD SVG 1.1//EN" "http://www.w3.org/Graphics/SVG/1.1/DTD/svg11.dtd">
<!--Generated by Origin-->
<svg xmlns="http://www.w3.org/2000/svg" xmlns:xlink="http://www.w3.org/1999/xlink" xmlns:olab="http://www.originlab.com/namespaces/olab" viewBox="0,0 3217,2281" width="10.720000in" height="7.600000in">
	<defs>
		<mask id="Cp_1">
			<rect x="576" y="264" width="2193" height="1639" fill="white"/>
		</mask>
	</defs>
	<g mask="url(#Cp_1)">
		<rect x="0" y="0" width="3217" height="2281" visibility="hidden" fill="none" opacity="0"/>
		<polyline points="640,1697 647,1697 654,1697 661,1697 668,1697 675,1697 682,1697 688,1697 695,1697 702,1697 709,1697 716,1697 723,1697 730,1697 737,1698 743,1699 750,1702 757,1693 764,1647 771,1580 778,1532 785,1496 792,1435 798,1332 805,1198 812,1096 819,1054 826,1062 833,1168 840,1256 847,1214 853,1186 860,1195 867,1128 874,1024 881,961 888,921 895,884 902,976 909,1217 915,1351 922,1358 929,1425 936,1427 943,1322 950,1364 957,1525 964,1616 970,1664 977,1702 984,1695 991,1620 998,1543 1005,1577 1012,1666 1019,1703 1025,1702 1032,1698 1039,1697 1046,1697 1053,1697 1060,1697 1067,1697 1074,1697 1080,1697 1087,1697 1094,1697 1101,1697 1108,1697 1115,1697 1122,1697 1129,1697 1135,1697 1142,1697 1149,1697 1156,1697 1163,1697 1170,1697 1177,1697 1184,1697 1190,1697 1197,1697 1204,1697 1211,1697 1218,1697 1225,1697 1232,1697 1239,1697 1246,1697 1252,1697 1259,1697 1266,1697 1273,1697 1280,1697 1287,1697 1294,1697 1301,1697 1307,1697 1314,1697 1321,1697 1328,1697 1335,1697 1342,1697 1349,1697 1356,1697 1362,1697 1369,1697 1376,1697 1383,1697 1390,1697 1397,1697 1404,1697 1411,1697 1417,1697 1424,1697 1431,1697 1438,1697 1445,1698 1452,1700 1459,1701 1466,1682 1472,1636 1479,1618 1486,1628 1493,1614 1500,1605 1507,1607 1514,1567 1521,1475 1527,1436 1534,1501 1541,1539 1548,1442 1555,1310 1562,1253 1569,1178 1576,1005 1583,836 1589,790 1596,797 1603,779 1610,784 1617,868 1624,964 1631,1010 1638,1073 1644,1139 1651,1150 1658,1129 1665,1084 1672,1011 1679,904 1686,761 1693,704 1699,786 1706,860 1713,854 1720,817 1727,791 1734,772 1741,741 1748,714 1754,727 1761,738 1768,703 1775,675 1782,694 1789,717 1796,728 1803,755 1809,772 1816,746 1823,712 1830,707 1837,681 1844,626 1851,588 1858,530 1865,457 1871,434 1878,465 1885,513 1892,573 1899,668 1906,789 1913,891 1920,970 1926,1022 1933,1005 1940,957 1947,963 1954,1011 1961,1035 1968,1043 1975,1088 1981,1130 1988,1112 1995,1049 2002,958 2009,939 2016,1012 2023,1043 2030,1039 2036,1075 2043,1040 2050,948 2057,1073 2064,1420 2071,1672 2078,1723 2085,1707 2092,1699 2098,1697 2105,1697 2112,1697 2119,1697 2126,1697 2133,1697 2140,1697 2147,1697 2153,1697 2160,1697 2167,1697 2174,1698 2181,1699 2188,1690 2195,1667 2202,1653 2208,1654 2215,1654 2222,1649 2229,1636 2236,1621 2243,1603 2250,1584 2257,1576 2263,1575 2270,1569 2277,1560 2284,1552 2291,1542 2298,1526 2305,1496 2312,1456 2318,1447 2325,1456 2332,1445 2339,1425 2346,1393 2353,1360 2360,1343 2367,1311 2374,1259 2380,1234 2387,1237 2394,1218 2401,1155 2408,1099 2415,1091 2422,1082 2429,1044 2435,1022 2442,1030 2449,1000 2456,935 2463,896 2470,882 2477,877 2484,870 2490,851 2497,821 2504,793 2511,770 2518,752 2525,757 2532,775 2539,764 2545,718 2552,667 2559,652 2566,770 2573,1118 2580,1519 2587,1708 2594,1722 2601,1704 2607,1698 2614,1697 2621,1697 2628,1697 2635,1697 2642,1697 2649,1697 2656,1697 2662,1697 2669,1697 2676,1697 2683,1697 2690,1697 2697,1697 2704,1697" style="stroke: #515151;stroke-width: 2;stroke-linecap:round;stroke-linejoin:round" fill="none" olab:comment="" olab:scope="Layer0.Plot0" class="Layer0 Layer Plot0 Plot"/>
		<polyline points="640,1697 647,1697 654,1697 661,1697 668,1697 675,1697 682,1697 688,1697 695,1697 702,1697 709,1697 716,1697 723,1697 730,1697 737,1697 743,1698 750,1699 757,1702 764,1694 771,1649 778,1578 785,1531 792,1501 798,1439 805,1340 812,1222 819,1129 826,1097 833,1101 840,1172 847,1298 853,1336 860,1276 867,1197 874,1131 881,1118 888,1056 895,909 902,868 909,949 915,1126 922,1373 929,1452 936,1407 943,1438 950,1434 957,1314 964,1260 970,1371 977,1544 984,1609 991,1576 998,1587 1005,1647 1012,1690 1019,1701 1025,1699 1032,1698 1039,1697 1046,1697 1053,1697 1060,1697 1067,1697 1074,1697 1080,1697 1087,1697 1094,1697 1101,1697 1108,1697 1115,1697 1122,1697 1129,1697 1135,1697 1142,1697 1149,1697 1156,1697 1163,1697 1170,1697 1177,1697 1184,1697 1190,1697 1197,1697 1204,1697 1211,1697 1218,1697 1225,1697 1232,1697 1239,1697 1246,1697 1252,1697 1259,1697 1266,1697 1273,1697 1280,1697 1287,1697 1294,1697 1301,1697 1307,1697 1314,1697 1321,1697 1328,1697 1335,1697 1342,1697 1349,1697 1356,1697 1362,1697 1369,1697 1376,1697 1383,1697 1390,1697 1397,1697 1404,1697 1411,1697 1417,1697 1424,1697 1431,1697 1438,1697 1445,1697 1452,1698 1459,1699 1466,1701 1472,1685 1479,1640 1486,1620 1493,1635 1500,1619 1507,1594 1514,1606 1521,1605 1527,1524 1534,1456 1541,1499 1548,1561 1555,1573 1562,1527 1569,1451 1576,1403 1583,1372 1589,1340 1596,1308 1603,1269 1610,1251 1617,1261 1624,1257 1631,1190 1638,1115 1644,1116 1651,1167 1658,1214 1665,1229 1672,1226 1679,1201 1686,1184 1693,1183 1699,1147 1706,1095 1713,1093 1720,1175 1727,1271 1734,1253 1741,1161 1748,1179 1754,1246 1761,1215 1768,1169 1775,1141 1782,1061 1789,1022 1796,1076 1803,1044 1809,888 1816,786 1823,781 1830,785 1837,731 1844,648 1851,641 1858,715 1865,758 1871,683 1878,591 1885,632 1892,778 1899,922 1906,1010 1913,998 1920,873 1926,721 1933,634 1940,657 1947,820 1954,1000 1961,1016 1968,894 1975,719 1981,574 1988,589 1995,743 2002,871 2009,998 2016,1215 2023,1381 2030,1388 2036,1394 2043,1491 2050,1531 2057,1525 2064,1598 2071,1682 2078,1705 2085,1701 2092,1698 2098,1697 2105,1697 2112,1697 2119,1697 2126,1698 2133,1703 2140,1714 2147,1691 2153,1541 2160,1272 2167,1094 2174,1204 2181,1452 2188,1539 2195,1483 2202,1426 2208,1405 2215,1420 2222,1455 2229,1464 2236,1401 2243,1232 2250,980 2257,793 2263,749 2270,814 2277,950 2284,1033 2291,1025 2298,1003 2305,952 2312,855 2318,775 2325,740 2332,743 2339,797 2346,880 2353,966 2360,1064 2367,1161 2374,1218 2380,1210 2387,1185 2394,1194 2401,1189 2408,1132 2415,1080 2422,1074 2429,1064 2435,1031 2442,1024 2449,1025 2456,977 2463,927 2470,910 2477,897 2484,884 2490,864 2497,831 2504,803 2511,797 2518,798 2525,789 2532,779 2539,768 2545,753 2552,723 2559,682 2566,664 2573,786 2580,1146 2587,1543 2594,1715 2601,1720 2607,1703 2614,1698 2621,1697 2628,1697 2635,1697 2642,1697 2649,1697 2656,1697 2662,1697 2669,1697 2676,1697 2683,1697 2690,1697 2697,1697 2704,1697" style="stroke: #F14040;stroke-width: 2;stroke-linecap:round;stroke-linejoin:round" fill="none" olab:comment="" olab:scope="Layer0.Plot1" class="Layer0 Layer Plot1 Plot"/>
	</g>
	<path d="M 576,264 L 2768,264" style="stroke: black;stroke-width: 4;stroke-linecap:round;stroke-linejoin:round" fill="none" olab:comment="" olab:scope="Layer0" class="Layer0 Layer"/>
	<path d="M 2768,264 L 2768,1902" style="stroke: black;stroke-width: 4;stroke-linecap:round;stroke-linejoin:round" fill="none" olab:comment="" olab:scope="Layer0" class="Layer0 Layer"/>
	<polyline points="576,1902 2768,1902" style="stroke: black;stroke-width: 4;stroke-linecap:square;stroke-linejoin:round" fill="none" olab:comment="" olab:scope="Layer0.Axis0.SubAxis0.Line" class="Layer0 Layer Axis0 Axis SubAxis0 SubAxis Line"/>
	<polyline points="576,264 2768,264" style="stroke: black;stroke-width: 4;stroke-linecap:square;stroke-linejoin:round" fill="none" olab:comment="" olab:scope="Layer0" class="Layer0 Layer"/>
	<polyline points="654,1902 654,1915" style="stroke: black;stroke-width: 4;stroke-linecap:butt;stroke-linejoin:round" fill="none" olab:comment="" olab:scope="Layer0.Axis0.SubAxis0.Tick-Minor" class="Layer0 Layer Axis0 Axis SubAxis0 SubAxis Tick Minor"/>
	<polyline points="966,1902 966,1915" style="stroke: black;stroke-width: 4;stroke-linecap:butt;stroke-linejoin:round" fill="none" olab:comment="" olab:scope="Layer0.Axis0.SubAxis0.Tick-Minor" class="Layer0 Layer Axis0 Axis SubAxis0 SubAxis Tick Minor"/>
	<polyline points="1278,1902 1278,1915" style="stroke: black;stroke-width: 4;stroke-linecap:butt;stroke-linejoin:round" fill="none" olab:comment="" olab:scope="Layer0.Axis0.SubAxis0.Tick-Minor" class="Layer0 Layer Axis0 Axis SubAxis0 SubAxis Tick Minor"/>
	<polyline points="1589,1902 1589,1915" style="stroke: black;stroke-width: 4;stroke-linecap:butt;stroke-linejoin:round" fill="none" olab:comment="" olab:scope="Layer0.Axis0.SubAxis0.Tick-Minor" class="Layer0 Layer Axis0 Axis SubAxis0 SubAxis Tick Minor"/>
	<polyline points="1901,1902 1901,1915" style="stroke: black;stroke-width: 4;stroke-linecap:butt;stroke-linejoin:round" fill="none" olab:comment="" olab:scope="Layer0.Axis0.SubAxis0.Tick-Minor" class="Layer0 Layer Axis0 Axis SubAxis0 SubAxis Tick Minor"/>
	<polyline points="2213,1902 2213,1915" style="stroke: black;stroke-width: 4;stroke-linecap:butt;stroke-linejoin:round" fill="none" olab:comment="" olab:scope="Layer0.Axis0.SubAxis0.Tick-Minor" class="Layer0 Layer Axis0 Axis SubAxis0 SubAxis Tick Minor"/>
	<polyline points="2525,1902 2525,1915" style="stroke: black;stroke-width: 4;stroke-linecap:butt;stroke-linejoin:round" fill="none" olab:comment="" olab:scope="Layer0.Axis0.SubAxis0.Tick-Minor" class="Layer0 Layer Axis0 Axis SubAxis0 SubAxis Tick Minor"/>
	<polyline points="810,1902 810,1928" style="stroke: black;stroke-width: 4;stroke-linecap:butt;stroke-linejoin:round" fill="none" olab:comment="" olab:scope="Layer0.Axis0.SubAxis0.Tick-Major" class="Layer0 Layer Axis0 Axis SubAxis0 SubAxis Tick Major"/>
	<polyline points="1122,1902 1122,1928" style="stroke: black;stroke-width: 4;stroke-linecap:butt;stroke-linejoin:round" fill="none" olab:comment="" olab:scope="Layer0.Axis0.SubAxis0.Tick-Major" class="Layer0 Layer Axis0 Axis SubAxis0 SubAxis Tick Major"/>
	<polyline points="1433,1902 1433,1928" style="stroke: black;stroke-width: 4;stroke-linecap:butt;stroke-linejoin:round" fill="none" olab:comment="" olab:scope="Layer0.Axis0.SubAxis0.Tick-Major" class="Layer0 Layer Axis0 Axis SubAxis0 SubAxis Tick Major"/>
	<polyline points="1745,1902 1745,1928" style="stroke: black;stroke-width: 4;stroke-linecap:butt;stroke-linejoin:round" fill="none" olab:comment="" olab:scope="Layer0.Axis0.SubAxis0.Tick-Major" class="Layer0 Layer Axis0 Axis SubAxis0 SubAxis Tick Major"/>
	<polyline points="2057,1902 2057,1928" style="stroke: black;stroke-width: 4;stroke-linecap:butt;stroke-linejoin:round" fill="none" olab:comment="" olab:scope="Layer0.Axis0.SubAxis0.Tick-Major" class="Layer0 Layer Axis0 Axis SubAxis0 SubAxis Tick Major"/>
	<polyline points="2369,1902 2369,1928" style="stroke: black;stroke-width: 4;stroke-linecap:butt;stroke-linejoin:round" fill="none" olab:comment="" olab:scope="Layer0.Axis0.SubAxis0.Tick-Major" class="Layer0 Layer Axis0 Axis SubAxis0 SubAxis Tick Major"/>
	<polyline points="2681,1902 2681,1928" style="stroke: black;stroke-width: 4;stroke-linecap:butt;stroke-linejoin:round" fill="none" olab:comment="" olab:scope="Layer0.Axis0.SubAxis0.Tick-Major" class="Layer0 Layer Axis0 Axis SubAxis0 SubAxis Tick Major"/>
	<polyline points="576,1902 576,264" style="stroke: black;stroke-width: 4;stroke-linecap:square;stroke-linejoin:round" fill="none" olab:comment="" olab:scope="Layer0.Axis1.SubAxis0.Line" class="Layer0 Layer Axis1 Axis SubAxis0 SubAxis Line"/>
	<polyline points="2768,1902 2768,264" style="stroke: black;stroke-width: 4;stroke-linecap:square;stroke-linejoin:round" fill="none" olab:comment="" olab:scope="Layer0" class="Layer0 Layer"/>
	<polyline points="576,1800 563,1800" style="stroke: black;stroke-width: 4;stroke-linecap:butt;stroke-linejoin:round" fill="none" olab:comment="" olab:scope="Layer0.Axis1.SubAxis0.Tick-Minor" class="Layer0 Layer Axis1 Axis SubAxis0 SubAxis Tick Minor"/>
	<polyline points="576,1595 563,1595" style="stroke: black;stroke-width: 4;stroke-linecap:butt;stroke-linejoin:round" fill="none" olab:comment="" olab:scope="Layer0.Axis1.SubAxis0.Tick-Minor" class="Layer0 Layer Axis1 Axis SubAxis0 SubAxis Tick Minor"/>
	<polyline points="576,1390 563,1390" style="stroke: black;stroke-width: 4;stroke-linecap:butt;stroke-linejoin:round" fill="none" olab:comment="" olab:scope="Layer0.Axis1.SubAxis0.Tick-Minor" class="Layer0 Layer Axis1 Axis SubAxis0 SubAxis Tick Minor"/>
	<polyline points="576,1185 563,1185" style="stroke: black;stroke-width: 4;stroke-linecap:butt;stroke-linejoin:round" fill="none" olab:comment="" olab:scope="Layer0.Axis1.SubAxis0.Tick-Minor" class="Layer0 Layer Axis1 Axis SubAxis0 SubAxis Tick Minor"/>
	<polyline points="576,981 563,981" style="stroke: black;stroke-width: 4;stroke-linecap:butt;stroke-linejoin:round" fill="none" olab:comment="" olab:scope="Layer0.Axis1.SubAxis0.Tick-Minor" class="Layer0 Layer Axis1 Axis SubAxis0 SubAxis Tick Minor"/>
	<polyline points="576,776 563,776" style="stroke: black;stroke-width: 4;stroke-linecap:butt;stroke-linejoin:round" fill="none" olab:comment="" olab:scope="Layer0.Axis1.SubAxis0.Tick-Minor" class="Layer0 Layer Axis1 Axis SubAxis0 SubAxis Tick Minor"/>
	<polyline points="576,571 563,571" style="stroke: black;stroke-width: 4;stroke-linecap:butt;stroke-linejoin:round" fill="none" olab:comment="" olab:scope="Layer0.Axis1.SubAxis0.Tick-Minor" class="Layer0 Layer Axis1 Axis SubAxis0 SubAxis Tick Minor"/>
	<polyline points="576,366 563,366" style="stroke: black;stroke-width: 4;stroke-linecap:butt;stroke-linejoin:round" fill="none" olab:comment="" olab:scope="Layer0.Axis1.SubAxis0.Tick-Minor" class="Layer0 Layer Axis1 Axis SubAxis0 SubAxis Tick Minor"/>
	<polyline points="576,1902 550,1902" style="stroke: black;stroke-width: 4;stroke-linecap:butt;stroke-linejoin:round" fill="none" olab:comment="" olab:scope="Layer0.Axis1.SubAxis0.Tick-Major" class="Layer0 Layer Axis1 Axis SubAxis0 SubAxis Tick Major"/>
	<polyline points="576,1697 550,1697" style="stroke: black;stroke-width: 4;stroke-linecap:butt;stroke-linejoin:round" fill="none" olab:comment="" olab:scope="Layer0.Axis1.SubAxis0.Tick-Major" class="Layer0 Layer Axis1 Axis SubAxis0 SubAxis Tick Major"/>
	<polyline points="576,1493 550,1493" style="stroke: black;stroke-width: 4;stroke-linecap:butt;stroke-linejoin:round" fill="none" olab:comment="" olab:scope="Layer0.Axis1.SubAxis0.Tick-Major" class="Layer0 Layer Axis1 Axis SubAxis0 SubAxis Tick Major"/>
	<polyline points="576,1288 550,1288" style="stroke: black;stroke-width: 4;stroke-linecap:butt;stroke-linejoin:round" fill="none" olab:comment="" olab:scope="Layer0.Axis1.SubAxis0.Tick-Major" class="Layer0 Layer Axis1 Axis SubAxis0 SubAxis Tick Major"/>
	<polyline points="576,1083 550,1083" style="stroke: black;stroke-width: 4;stroke-linecap:butt;stroke-linejoin:round" fill="none" olab:comment="" olab:scope="Layer0.Axis1.SubAxis0.Tick-Major" class="Layer0 Layer Axis1 Axis SubAxis0 SubAxis Tick Major"/>
	<polyline points="576,878 550,878" style="stroke: black;stroke-width: 4;stroke-linecap:butt;stroke-linejoin:round" fill="none" olab:comment="" olab:scope="Layer0.Axis1.SubAxis0.Tick-Major" class="Layer0 Layer Axis1 Axis SubAxis0 SubAxis Tick Major"/>
	<polyline points="576,673 550,673" style="stroke: black;stroke-width: 4;stroke-linecap:butt;stroke-linejoin:round" fill="none" olab:comment="" olab:scope="Layer0.Axis1.SubAxis0.Tick-Major" class="Layer0 Layer Axis1 Axis SubAxis0 SubAxis Tick Major"/>
	<polyline points="576,469 550,469" style="stroke: black;stroke-width: 4;stroke-linecap:butt;stroke-linejoin:round" fill="none" olab:comment="" olab:scope="Layer0.Axis1.SubAxis0.Tick-Major" class="Layer0 Layer Axis1 Axis SubAxis0 SubAxis Tick Major"/>
	<polyline points="576,264 550,264" style="stroke: black;stroke-width: 4;stroke-linecap:butt;stroke-linejoin:round" fill="none" olab:comment="" olab:scope="Layer0.Axis1.SubAxis0.Tick-Major" class="Layer0 Layer Axis1 Axis SubAxis0 SubAxis Tick Major"/>
	<text x="767" dominant-baseline="auto" y="1996" fill="black" font-family="宋体,'MS PGothic',SimSun" font-size="58" font-weight="400" olab:comment="" olab:scope="Layer0.Axis0.SubAxis0.TickLabel-Major" class="Layer0 Layer Axis0 Axis SubAxis0 SubAxis TickLabel Major">
		<tspan x="767" style="font-kerning:none">−20</tspan>
	</text>
	<text x="1079" dominant-baseline="auto" y="1996" fill="black" font-family="宋体,'MS PGothic',SimSun" font-size="58" font-weight="400" olab:comment="" olab:scope="Layer0.Axis0.SubAxis0.TickLabel-Major" class="Layer0 Layer Axis0 Axis SubAxis0 SubAxis TickLabel Major">
		<tspan x="1079" style="font-kerning:none">−15</tspan>
	</text>
	<text x="1390" dominant-baseline="auto" y="1996" fill="black" font-family="宋体,'MS PGothic',SimSun" font-size="58" font-weight="400" olab:comment="" olab:scope="Layer0.Axis0.SubAxis0.TickLabel-Major" class="Layer0 Layer Axis0 Axis SubAxis0 SubAxis TickLabel Major">
		<tspan x="1390" style="font-kerning:none">−10</tspan>
	</text>
	<text x="1716" dominant-baseline="auto" y="1996" fill="black" font-family="宋体,'MS PGothic',SimSun" font-size="58" font-weight="400" olab:comment="" olab:scope="Layer0.Axis0.SubAxis0.TickLabel-Major" class="Layer0 Layer Axis0 Axis SubAxis0 SubAxis TickLabel Major">
		<tspan x="1716" style="font-kerning:none">−5</tspan>
	</text>
	<text x="2043" dominant-baseline="auto" y="1996" fill="black" font-family="宋体,'MS PGothic',SimSun" font-size="58" font-weight="400" olab:comment="" olab:scope="Layer0.Axis0.SubAxis0.TickLabel-Major" class="Layer0 Layer Axis0 Axis SubAxis0 SubAxis TickLabel Major">
		<tspan x="2043" style="font-kerning:none">0</tspan>
	</text>
	<text x="2355" dominant-baseline="auto" y="1996" fill="black" font-family="宋体,'MS PGothic',SimSun" font-size="58" font-weight="400" olab:comment="" olab:scope="Layer0.Axis0.SubAxis0.TickLabel-Major" class="Layer0 Layer Axis0 Axis SubAxis0 SubAxis TickLabel Major">
		<tspan x="2355" style="font-kerning:none">5</tspan>
	</text>
	<text x="2652" dominant-baseline="auto" y="1996" fill="black" font-family="宋体,'MS PGothic',SimSun" font-size="58" font-weight="400" olab:comment="" olab:scope="Layer0.Axis0.SubAxis0.TickLabel-Major" class="Layer0 Layer Axis0 Axis SubAxis0 SubAxis TickLabel Major">
		<tspan x="2652" style="font-kerning:none">10</tspan>
	</text>
	<text x="445" dominant-baseline="auto" y="1926" fill="black" font-family="宋体,'MS PGothic',SimSun" font-size="58" font-weight="400" olab:comment="" olab:scope="Layer0.Axis1.SubAxis0.TickLabel-Major" class="Layer0 Layer Axis1 Axis SubAxis0 SubAxis TickLabel Major">
		<tspan x="445" style="font-kerning:none">−20</tspan>
	</text>
	<text x="503" dominant-baseline="auto" y="1721" fill="black" font-family="宋体,'MS PGothic',SimSun" font-size="58" font-weight="400" olab:comment="" olab:scope="Layer0.Axis1.SubAxis0.TickLabel-Major" class="Layer0 Layer Axis1 Axis SubAxis0 SubAxis TickLabel Major">
		<tspan x="503" style="font-kerning:none">0</tspan>
	</text>
	<text x="474" dominant-baseline="auto" y="1517" fill="black" font-family="宋体,'MS PGothic',SimSun" font-size="58" font-weight="400" olab:comment="" olab:scope="Layer0.Axis1.SubAxis0.TickLabel-Major" class="Layer0 Layer Axis1 Axis SubAxis0 SubAxis TickLabel Major">
		<tspan x="474" style="font-kerning:none">20</tspan>
	</text>
	<text x="474" dominant-baseline="auto" y="1312" fill="black" font-family="宋体,'MS PGothic',SimSun" font-size="58" font-weight="400" olab:comment="" olab:scope="Layer0.Axis1.SubAxis0.TickLabel-Major" class="Layer0 Layer Axis1 Axis SubAxis0 SubAxis TickLabel Major">
		<tspan x="474" style="font-kerning:none">40</tspan>
	</text>
	<text x="474" dominant-baseline="auto" y="1107" fill="black" font-family="宋体,'MS PGothic',SimSun" font-size="58" font-weight="400" olab:comment="" olab:scope="Layer0.Axis1.SubAxis0.TickLabel-Major" class="Layer0 Layer Axis1 Axis SubAxis0 SubAxis TickLabel Major">
		<tspan x="474" style="font-kerning:none">60</tspan>
	</text>
	<text x="474" dominant-baseline="auto" y="902" fill="black" font-family="宋体,'MS PGothic',SimSun" font-size="58" font-weight="400" olab:comment="" olab:scope="Layer0.Axis1.SubAxis0.TickLabel-Major" class="Layer0 Layer Axis1 Axis SubAxis0 SubAxis TickLabel Major">
		<tspan x="474" style="font-kerning:none">80</tspan>
	</text>
	<text x="445" dominant-baseline="auto" y="697" fill="black" font-family="宋体,'MS PGothic',SimSun" font-size="58" font-weight="400" olab:comment="" olab:scope="Layer0.Axis1.SubAxis0.TickLabel-Major" class="Layer0 Layer Axis1 Axis SubAxis0 SubAxis TickLabel Major">
		<tspan x="445" style="font-kerning:none">100</tspan>
	</text>
	<text x="445" dominant-baseline="auto" y="493" fill="black" font-family="宋体,'MS PGothic',SimSun" font-size="58" font-weight="400" olab:comment="" olab:scope="Layer0.Axis1.SubAxis0.TickLabel-Major" class="Layer0 Layer Axis1 Axis SubAxis0 SubAxis TickLabel Major">
		<tspan x="445" style="font-kerning:none">120</tspan>
	</text>
	<text x="445" dominant-baseline="auto" y="288" fill="black" font-family="宋体,'MS PGothic',SimSun" font-size="58" font-weight="400" olab:comment="" olab:scope="Layer0.Axis1.SubAxis0.TickLabel-Major" class="Layer0 Layer Axis1 Axis SubAxis0 SubAxis TickLabel Major">
		<tspan x="445" style="font-kerning:none">140</tspan>
	</text>
	<text x="0" dominant-baseline="auto" y="0" fill="black" font-family="宋体,'MS PGothic',SimSun" font-size="67" font-weight="400" transform="matrix(-1.83697e-16 -1 0.999999 -1.83697e-16 421 1338)" olab:comment="" olab:scope="Layer0.Axis1.SubAxis0.Title" class="Layer0 Layer Axis1 Axis SubAxis0 SubAxis Title">
		<tspan x="0" style="white-space:pre;font-kerning:none" xml:space="preserve">DOS (states/eV)</tspan>
	</text>
	<text x="1485" dominant-baseline="auto" y="2085" fill="black" font-family="宋体,'MS PGothic',SimSun" font-size="67" font-weight="400" olab:comment="" olab:scope="Layer0.Axis0.SubAxis0.Title" class="Layer0 Layer Axis0 Axis SubAxis0 SubAxis Title">
		<tspan x="1485" style="white-space:pre;font-kerning:none" xml:space="preserve">E - EF (eV)</tspan>
	</text>
	<polyline points="2338,280 2746,280" style="stroke: black;stroke-width: 4;stroke-linecap:square;stroke-linejoin:miter;stroke-miterlimit:10" fill="none" olab:comment="" olab:scope="Layer0" class="Layer0 Layer"/>
	<polyline points="2746,280 2746,404" style="stroke: black;stroke-width: 4;stroke-linecap:square;stroke-linejoin:miter;stroke-miterlimit:10" fill="none" olab:comment="" olab:scope="Layer0" class="Layer0 Layer"/>
	<polyline points="2746,404 2338,404" style="stroke: black;stroke-width: 4;stroke-linecap:square;stroke-linejoin:miter;stroke-miterlimit:10" fill="none" olab:comment="" olab:scope="Layer0" class="Layer0 Layer"/>
	<polyline points="2338,404 2338,280" style="stroke: black;stroke-width: 4;stroke-linecap:square;stroke-linejoin:miter;stroke-miterlimit:10" fill="none" olab:comment="" olab:scope="Layer0" class="Layer0 Layer"/>
	<polyline points="2339,310 2455,310" style="stroke: #515151;stroke-width: 2;stroke-linecap:round;stroke-linejoin:round" fill="none" olab:comment="" olab:scope="Layer0" class="Layer0 Layer"/>
	<text x="2455" dominant-baseline="auto" y="331" fill="black" font-family="宋体,'MS PGothic',SimSun" font-size="58" font-weight="400" olab:comment="" olab:scope="Layer0" class="Layer0 Layer">
		<tspan x="2455" style="white-space:pre;font-kerning:none" xml:space="preserve"> </tspan>
	</text>
	<text x="2484" dominant-baseline="auto" y="331" fill="black" font-family="宋体,'MS PGothic',SimSun" font-size="58" font-weight="400" olab:comment="" olab:scope="Layer0" class="Layer0 Layer">
		<tspan x="2484" style="white-space:pre;font-kerning:none" xml:space="preserve">TDOS up</tspan>
	</text>
	<polyline points="2339,374 2455,374" style="stroke: #F14040;stroke-width: 2;stroke-linecap:round;stroke-linejoin:round" fill="none" olab:comment="" olab:scope="Layer0" class="Layer0 Layer"/>
	<text x="2455" dominant-baseline="auto" y="395" fill="black" font-family="宋体,'MS PGothic',SimSun" font-size="58" font-weight="400" olab:comment="" olab:scope="Layer0" class="Layer0 Layer">
		<tspan x="2455" style="white-space:pre;font-kerning:none" xml:space="preserve"> </tspan>
	</text>
	<text x="2484" dominant-baseline="auto" y="395" fill="black" font-family="宋体,'MS PGothic',SimSun" font-size="58" font-weight="400" olab:comment="" olab:scope="Layer0" class="Layer0 Layer">
		<tspan x="2484" style="white-space:pre;font-kerning:none" xml:space="preserve">TDOS down</tspan>
	</text>
</svg>

